<svg width="26" height="26" viewBox="0 0 26 26" version="1.1" xmlns="http://www.w3.org/2000/svg" xmlns:xlink="http://www.w3.org/1999/xlink">
<title>Settings</title>
<desc>Created using Figma</desc>
<g id="Canvas" transform="translate(-558 305)">
<g id="Settings">
<g id="Ellipse">
<use xlink:href="#path0_stroke" transform="translate(559 -304)" fill="#828282"/>
</g>
<g id="Line">
<use xlink:href="#path1_stroke" transform="matrix(1 -2.44929e-16 2.44929e-16 1 565 -300)" fill="#828282"/>
</g>
<g id="Ellipse">
<use xlink:href="#path0_stroke" transform="translate(564 -286)" fill="#828282"/>
</g>
<g id="Line">
<use xlink:href="#path2_stroke" transform="matrix(1 -2.44929e-16 2.44929e-16 1 570 -282)" fill="#828282"/>
</g>
<g id="Line">
<use xlink:href="#path3_stroke" transform="matrix(1 -2.44929e-16 2.44929e-16 1 558 -282)" fill="#828282"/>
</g>
<g id="Ellipse">
<use xlink:href="#path0_stroke" transform="translate(573 -295)" fill="#828282"/>
</g>
<g id="Line">
<use xlink:href="#path4_stroke" transform="matrix(1 -2.44929e-16 2.44929e-16 1 558 -291)" fill="#828282"/>
</g>
<g id="Line">
<use xlink:href="#path5_stroke" transform="matrix(1 -2.44929e-16 2.44929e-16 1 579 -291)" fill="#828282"/>
</g>
</g>
</g>
<defs>
<path id="path0_stroke" d="M 5 3C 5 4.10457 4.10457 5 3 5L 3 7C 5.20914 7 7 5.20914 7 3L 5 3ZM 3 5C 1.89543 5 1 4.10457 1 3L -1 3C -1 5.20914 0.790861 7 3 7L 3 5ZM 1 3C 1 1.89543 1.89543 1 3 1L 3 -1C 0.790861 -1 -1 0.790861 -1 3L 1 3ZM 3 1C 4.10457 1 5 1.89543 5 3L 7 3C 7 0.790861 5.20914 -1 3 -1L 3 1Z"/>
<path id="path1_stroke" d="M 1 -2C 0.447715 -2 0 -1.55228 0 -1C 0 -0.447715 0.447715 0 1 0L 1 -2ZM 17 0C 17.5523 0 18 -0.447715 18 -1C 18 -1.55228 17.5523 -2 17 -2L 17 0ZM 1 0L 17 0L 17 -2L 1 -2L 1 0Z"/>
<path id="path2_stroke" d="M 1 -2C 0.447715 -2 0 -1.55228 0 -1C 0 -0.447715 0.447715 0 1 0L 1 -2ZM 12 0C 12.5523 0 13 -0.447715 13 -1C 13 -1.55228 12.5523 -2 12 -2L 12 0ZM 1 0L 12 0L 12 -2L 1 -2L 1 0Z"/>
<path id="path3_stroke" d="M 1 -2C 0.447715 -2 0 -1.55228 0 -1C 0 -0.447715 0.447715 0 1 0L 1 -2ZM 6 0C 6.55228 0 7 -0.447715 7 -1C 7 -1.55228 6.55228 -2 6 -2L 6 0ZM 1 0L 6 0L 6 -2L 1 -2L 1 0Z"/>
<path id="path4_stroke" d="M 1 -2C 0.447715 -2 0 -1.55228 0 -1C 0 -0.447715 0.447715 0 1 0L 1 -2ZM 15 0C 15.5523 0 16 -0.447715 16 -1C 16 -1.55228 15.5523 -2 15 -2L 15 0ZM 1 0L 15 0L 15 -2L 1 -2L 1 0Z"/>
<path id="path5_stroke" d="M 1 -2C 0.447715 -2 0 -1.55228 0 -1C 0 -0.447715 0.447715 0 1 0L 1 -2ZM 4 0C 4.55228 0 5 -0.447715 5 -1C 5 -1.55228 4.55228 -2 4 -2L 4 0ZM 1 0L 4 0L 4 -2L 1 -2L 1 0Z"/>
</defs>
</svg>
